{
  "accessors": [
    {
      "name": "Object003_001_1_positions",
      "componentType": 5126,
      "count": 6368,
      "min": [
        -692.5424194335938,
        -55.09749984741211,
        -103.17140197753906
      ],
      "max": [
        -255.3759002685547,
        254.79949951171875,
        199.39869689941406
      ],
      "type": "VEC3",
      "bufferView": 0,
      "byteOffset": 0
    },
    {
      "name": "Object003_001_1_normals",
      "componentType": 5126,
      "count": 6368,
      "min": [
        -1,
        -1,
        -1
      ],
      "max": [
        1,
        1,
        1
      ],
      "type": "VEC3",
      "bufferView": 0,
      "byteOffset": 76416
    },
    {
      "name": "Object003_001_1_texcoords",
      "componentType": 5126,
      "count": 6368,
      "min": [
        -3.8717000484466553,
        -2.5989999771118164
      ],
      "max": [
        4.871699810028076,
        3.5989999771118164
      ],
      "type": "VEC2",
      "bufferView": 1,
      "byteOffset": 0
    },
    {
      "name": "Object003_001_1_0_indices",
      "componentType": 5123,
      "count": 10335,
      "min": [
        0
      ],
      "max": [
        6367
      ],
      "type": "SCALAR",
      "bufferView": 2,
      "byteOffset": 0
    }
  ],
  "asset": {
    "generator": "obj2gltf",
    "version": "2.0"
  },
  "buffers": [
    {
      "name": "JP",
      "byteLength": 224448,
      "uri": "data:application/octet-stream;base64,"
    }
  ],
  "bufferViews": [
    {
      "name": "bufferView_0",
      "buffer": 0,
      "byteLength": 152832,
      "byteOffset": 0,
      "byteStride": 12,
      "target": 34962
    },
    {
      "name": "bufferView_1",
      "buffer": 0,
      "byteLength": 50944,
      "byteOffset": 152832,
      "byteStride": 8,
      "target": 34962
    },
    {
      "name": "bufferView_2",
      "buffer": 0,
      "byteLength": 20672,
      "byteOffset": 203776,
      "target": 34963
    }
  ],
  "materials": [
    {
      "name": "Material__741",
      "pbrMetallicRoughness": {
        "baseColorFactor": [
          0.5,
          0.5,
          0.5,
          1
        ],
        "metallicFactor": 0,
        "roughnessFactor": 1
      },
      "emissiveFactor": [
        0,
        0,
        0
      ],
      "alphaMode": "OPAQUE",
      "doubleSided": false
    }
  ],
  "meshes": [
    {
      "name": "Object003_001_1",
      "primitives": [
        {
          "attributes": {
            "POSITION": 0,
            "NORMAL": 1,
            "TEXCOORD_0": 2
          },
          "indices": 3,
          "material": 0,
          "mode": 4
        }
      ]
    }
  ],
  "nodes": [
    {
      "name": "Object003_001",
      "mesh": 0
    }
  ],
  "scene": 0,
  "scenes": [
    {
      "nodes": [
        0
      ]
    }
  ]
}
